<svg width="1900" height="245" xmlns="http://www.w3.org/2000/svg" xmlns:xlink="http://www.w3.org/1999/xlink" xml:space="preserve" overflow="hidden"><g transform="translate(-288 -350)"><rect x="291.5" y="353.5" width="616" height="238" stroke="#000000" stroke-width="6.875" stroke-miterlimit="8" fill="#FFFFFF"/><text font-family="Times New Roman,Times New Roman_MSFontService,sans-serif" font-weight="700" font-size="46" transform="matrix(1 0 0 1 341.623 461)">Small portion of data with </text><text font-family="Times New Roman,Times New Roman_MSFontService,sans-serif" font-weight="700" font-size="46" transform="matrix(1 0 0 1 401.504 516)">human</text><text font-family="Times New Roman,Times New Roman_MSFontService,sans-serif" font-weight="700" font-size="46" transform="matrix(1 0 0 1 539.004 516)">-</text><text font-family="Times New Roman,Times New Roman_MSFontService,sans-serif" font-weight="700" font-size="46" transform="matrix(1 0 0 1 554.473 516)">made labels.</text><text font-family="Times New Roman,Times New Roman_MSFontService,sans-serif" font-weight="400" font-size="46" transform="matrix(1 0 0 1 796.244 516)"> </text><rect x="1568.5" y="353.5" width="616" height="238" stroke="#000000" stroke-width="6.875" stroke-miterlimit="8" fill="#FFFFFF"/><text font-family="Times New Roman,Times New Roman_MSFontService,sans-serif" font-weight="700" font-size="46" transform="matrix(1 0 0 1 1662.15 461)">First </text><text font-family="Times New Roman,Times New Roman_MSFontService,sans-serif" font-weight="700" font-size="46" transform="matrix(1 0 0 1 1768.14 461)">Segmenter</text><text font-family="Times New Roman,Times New Roman_MSFontService,sans-serif" font-weight="700" font-size="46" transform="matrix(1 0 0 1 1977.26 461)"> </text><text font-family="Times New Roman,Times New Roman_MSFontService,sans-serif" font-weight="700" font-size="46" transform="matrix(1 0 0 1 1988.72 461)">(base </text><text font-family="Times New Roman,Times New Roman_MSFontService,sans-serif" font-weight="700" font-size="46" transform="matrix(1 0 0 1 1808.52 516)">model)</text><text font-family="Times New Roman,Times New Roman_MSFontService,sans-serif" font-weight="400" font-size="46" transform="matrix(1 0 0 1 1943.73 516)"> </text><path d="M907.5 469.063 1546.22 469.063 1546.22 475.938 907.5 475.938ZM1541.63 458.75 1569.13 472.501 1541.63 486.25Z"/></g></svg>