<svg width="1900" height="245" xmlns="http://www.w3.org/2000/svg" xmlns:xlink="http://www.w3.org/1999/xlink" xml:space="preserve" overflow="hidden"><g transform="translate(-288 -866)"><rect x="291.5" y="869.5" width="457" height="238" stroke="#000000" stroke-width="6.875" stroke-miterlimit="8" fill="#FFFFFF"/><text font-family="Times New Roman,Times New Roman_MSFontService,sans-serif" font-weight="700" font-size="46" transform="matrix(1 0 0 1 344.156 977)">Lots of unlabelled </text><text font-family="Times New Roman,Times New Roman_MSFontService,sans-serif" font-weight="700" font-size="46" transform="matrix(1 0 0 1 470.771 1032)">data.</text><text font-family="Times New Roman,Times New Roman_MSFontService,sans-serif" font-weight="400" font-size="46" transform="matrix(1 0 0 1 568.739 1032)"> </text><rect x="1009.5" y="869.5" width="457" height="238" stroke="#000000" stroke-width="6.875" stroke-linecap="square" stroke-miterlimit="8" stroke-dasharray="20.625 6.875" fill="#FFFFFF"/><text font-family="Times New Roman,Times New Roman_MSFontService,sans-serif" font-weight="700" font-size="46" transform="matrix(1 0 0 1 1066.77 977)">Inference of First </text><text font-family="Times New Roman,Times New Roman_MSFontService,sans-serif" font-weight="700" font-size="46" transform="matrix(1 0 0 1 1144.69 1032)">Classifier</text><text font-family="Times New Roman,Times New Roman_MSFontService,sans-serif" font-weight="400" font-size="46" transform="matrix(1 0 0 1 1330.31 1032)"> </text><rect x="1727.5" y="869.5" width="457" height="238" stroke="#000000" stroke-width="6.875" stroke-miterlimit="8" fill="#FFFFFF"/><text font-family="Times New Roman,Times New Roman_MSFontService,sans-serif" font-weight="700" font-size="46" transform="matrix(1 0 0 1 1821.76 1004)">Pseudo</text><text font-family="Times New Roman,Times New Roman_MSFontService,sans-serif" font-weight="700" font-size="46" transform="matrix(1 0 0 1 1961.55 1004)">-</text><text font-family="Times New Roman,Times New Roman_MSFontService,sans-serif" font-weight="700" font-size="46" transform="matrix(1 0 0 1 1977.02 1004)">labels</text><text font-family="Times New Roman,Times New Roman_MSFontService,sans-serif" font-weight="400" font-size="46" transform="matrix(1 0 0 1 2088.73 1004)"> </text><path d="M748.5 985.063 985.902 985.063 985.902 991.938 748.5 991.938ZM981.319 974.75 1008.82 988.5 981.319 1002.25Z"/><path d="M1466.5 985.063 1703.9 985.063 1703.9 991.938 1466.5 991.938ZM1699.32 974.75 1726.82 988.5 1699.32 1002.25Z"/></g></svg>