<svg width="1907" height="574" xmlns="http://www.w3.org/2000/svg" xmlns:xlink="http://www.w3.org/1999/xlink" xml:space="preserve" overflow="hidden"><g transform="translate(-281 -1457)"><rect x="284.5" y="1460.5" width="457" height="239" stroke="#000000" stroke-width="6.875" stroke-miterlimit="8" fill="#FFFFFF"/><text font-family="Times New Roman,Times New Roman_MSFontService,sans-serif" font-weight="700" font-size="46" transform="matrix(1 0 0 1 348.336 1569)">Original labelled </text><text font-family="Times New Roman,Times New Roman_MSFontService,sans-serif" font-weight="700" font-size="46" transform="matrix(1 0 0 1 469.221 1624)">data</text><text font-family="Times New Roman,Times New Roman_MSFontService,sans-serif" font-weight="400" font-size="46" transform="matrix(1 0 0 1 555.732 1624)"> </text><rect x="284.5" y="1788.5" width="457" height="239" stroke="#000000" stroke-width="6.875" stroke-miterlimit="8" fill="#FFFFFF"/><text font-family="Times New Roman,Times New Roman_MSFontService,sans-serif" font-weight="700" font-size="46" transform="matrix(1 0 0 1 365.237 1896)">Most confident </text><text font-family="Times New Roman,Times New Roman_MSFontService,sans-serif" font-weight="700" font-size="46" transform="matrix(1 0 0 1 380.431 1951)">pseudo</text><text font-family="Times New Roman,Times New Roman_MSFontService,sans-serif" font-weight="700" font-size="46" transform="matrix(1 0 0 1 517.358 1951)">-</text><text font-family="Times New Roman,Times New Roman_MSFontService,sans-serif" font-weight="700" font-size="46" transform="matrix(1 0 0 1 532.827 1951)">labels</text><text font-family="Times New Roman,Times New Roman_MSFontService,sans-serif" font-weight="400" font-size="46" transform="matrix(1 0 0 1 644.545 1951)"> </text><rect x="1005.5" y="1624.5" width="457" height="239" stroke="#000000" stroke-width="6.875" stroke-miterlimit="8" fill="#FFFFFF"/><text font-family="Times New Roman,Times New Roman_MSFontService,sans-serif" font-weight="700" font-size="46" transform="matrix(1 0 0 1 1114.1 1760)">New dataset</text><text font-family="Times New Roman,Times New Roman_MSFontService,sans-serif" font-weight="400" font-size="46" transform="matrix(1 0 0 1 1353.57 1760)"> </text><rect x="1727.5" y="1624.5" width="457" height="239" stroke="#000000" stroke-width="6.875" stroke-miterlimit="8" fill="#FFFFFF"/><text font-family="Times New Roman,Times New Roman_MSFontService,sans-serif" font-weight="700" font-size="46" transform="matrix(1 0 0 1 1858.36 1732)">Improved </text><text font-family="Times New Roman,Times New Roman_MSFontService,sans-serif" font-weight="700" font-size="46" transform="matrix(1 0 0 1 1844.91 1787)">Segmenter</text><text font-family="Times New Roman,Times New Roman_MSFontService,sans-serif" font-weight="700" font-size="46" transform="matrix(1 0 0 1 2054.02 1787)">.</text><text font-family="Times New Roman,Times New Roman_MSFontService,sans-serif" font-weight="400" font-size="46" transform="matrix(1 0 0 1 2065.48 1787)"> </text><path d="M1462.5 1740.06 1703.62 1740.06 1703.62 1746.94 1462.5 1746.94ZM1699.04 1729.75 1726.54 1743.5 1699.04 1757.25Z"/><path d="M741.5 1577.06 876.955 1577.06 876.955 1744.24 873.518 1740.8 982.619 1740.8 982.619 1747.68 870.08 1747.68 870.08 1580.5 873.518 1583.94 741.5 1583.94ZM978.036 1730.49 1005.54 1744.24 978.036 1757.99Z"/><path d="M0-3.4375 135.455-3.4375 135.455 163.742 132.018 160.304 241.119 160.304 241.119 167.179 128.58 167.179 128.58 0 132.018 3.4375 0 3.4375ZM236.535 149.992 264.035 163.742 236.535 177.492Z" transform="matrix(1 0 0 -1 741.5 1907.24)"/></g></svg>